<svg xmlns="http://www.w3.org/2000/svg" xmlns:xlink="http://www.w3.org/1999/xlink" width="513.3572998046875" height="506.1440124511719" viewBox="259.9551086425781 267.3450012207031 513.3572998046875 506.1440124511719">
	<path fill="#069c95" d="M547.12 321.788L547.182 321.301C547.829 315.639 547.427 309.591 547.432 303.887L547.451 267.345C559.302 269.434 571.107 271.279 582.727 274.499C642.082 290.942 693.086 328.105 728.335 378.378C733.78 386.144 739.319 394.4 743.861 402.729C770.727 451.996 779.167 507.25 769.367 562.375L761.781 593.99L753.07 615C751.242 619.339 749.714 623.77 747.636 628.009L737.341 646.717C735.474 650.019 733.843 653.51 731.839 656.726C729.766 660.053 726.868 663.01 724.518 666.164C717.804 675.174 711.413 684.286 703.75 692.548C697.19 699.621 689.948 705.567 683.111 712.262C644.928 744.267 597.588 768.232 547.397 772.608L547.225 719.574C566.688 716.256 586.797 710.749 604.404 701.61C612.93 697.184 621.058 691.71 629.107 686.476L547.402 686.155L547.458 625.655L586.48 625.807C594.38 625.866 603.063 626.663 610.828 625.339C614.671 624.684 618.401 623.369 621.746 621.357C630.295 616.214 636.503 607.551 638.759 597.862C640.982 588.32 640.076 578.401 634.858 569.945C630.041 562.141 621.8 555.561 612.868 553.148C607.168 551.607 601.001 551.995 595.148 551.986L572.042 551.991L468.084 551.975L435.29 551.962C424.911 551.94 414.546 552.262 404.386 549.806C379.533 543.797 359.494 527.335 346.453 505.591C331.932 481.379 330.828 453.23 337.54 426.402C329.275 441.247 321.955 455.885 318.444 472.61C312.96 498.729 311.31 525.955 315.595 552.39C319.84 578.575 329.954 603.543 344.399 625.69L486.395 625.777L486.022 686.358L403.483 686.177C409.804 690.596 415.928 695.103 422.674 698.884C442.038 709.739 464.512 715.835 486.339 719.23L486.087 773.489C440.014 766.308 394.244 748.487 357.759 718.934C325.843 693.082 299 659.423 282.25 621.839C270.713 595.95 263.886 568.279 261.041 540.132C257.109 501.233 263.998 458.357 279.39 422.408C285.612 407.875 293.636 394.254 302.464 381.177C306.298 375.497 310.085 369.789 314.416 364.469C331.273 343.762 351.421 324.531 373.638 309.628C392.093 297.25 412.034 287.695 432.924 280.191C449.987 274.063 468.003 269.244 486.067 267.394L486.423 318.724L486.319 321.854C483.51 323.184 479.81 323.381 476.755 323.951L463.876 326.875C441.945 332.616 421.599 342.297 403.081 355.312L486.025 355.523L486.158 417.106L445.798 417.081C438.258 417.081 430.079 416.52 422.619 417.534C419.254 417.991 415.702 419.16 412.614 420.558C404.325 424.803 396.362 431.347 393.412 440.532L393.111 441.563C391.44 445.615 390.82 450.899 391.349 455.27C391.815 463.033 394.544 470.863 399.317 477.042C403.938 483.025 410.092 487.677 417.532 489.464C422.497 490.656 428.25 490.143 433.324 490.145L459.191 490.124L562.165 490.113L594.095 490.115C601.104 490.133 608.403 489.883 615.358 490.798C619.697 491.369 623.956 492.042 628.145 493.345C653.012 501.078 673.325 517.741 685.424 540.875C698.431 565.746 699.267 592.018 690.951 618.5C706.097 597.932 712.712 573.746 717.751 549.075C719.912 538.493 720.473 527.759 720.466 516.986C720.441 480.973 710.436 446.967 690.613 416.949L547.474 417.047L547.479 355.487L632.348 355.48C622.882 349.164 612.92 343.035 602.579 338.281C584.887 330.147 566.21 325.246 547.12 321.788Z"/>
</svg>